<?xml version="1.0" encoding="utf-8"?>
<svg viewBox="36.322 36.844 435.802 89.2" style="" preserveAspectRatio="xMidYMid" 
xmlns="http://www.w3.org/2000/svg">
  <defs>
    <filter id="editing-extrusion" x="-100%" y="-100%" width="300%" height="300%">
      <feFlood result="color1" flood-color="#303030"/>
      <feConvolveMatrix order="13,13" divisor="1" kernelMatrix="1 0 0 0 0 0 0 0 0 0 0 0 0 0 1 0 0 0 0 0 0 0 0 0 0 0 0 0 1 0 0 0 0 0 0 0 0 0 0 0 0 0 1 0 0 0 0 0 0 0 0 0 0 0 0 0 1 0 0 0 0 0 0 0 0 0 0 0 0 0 1 0 0 0 0 0 0 0 0 0 0 0 0 0 1 0 0 0 0 0 0 0 0 0 0 0 0 0 1 0 0 0 0 0 0 0 0 0 0 0 0 0 1 0 0 0 0 0 0 0 0 0 0 0 0 0 1 0 0 0 0 0 0 0 0 0 0 0 0 0 1 0 0 0 0 0 0 0 0 0 0 0 0 0 1 0 0 0 0 0 0 0 0 0 0 0 0 0 1" in="SourceAlpha" result="extrude"/>
      <feComposite in="color1" in2="extrude" result="comp-extrude" operator="in"/>
      <feOffset dx="6.5" dy="6.5" in="comp-extrude" result="offset-extrude"/>
      <feMerge>
        <feMergeNode in="offset-extrude"/>
        <feMergeNode in="SourceGraphic"/>
      </feMerge>
    </filter>
  </defs>
  <g filter="url(#editing-extrusion)">
    <g transform="translate(37.12509059906006, 112.74000072479248)">
      <path d="M54.98-21.11L54.98-21.11L54.98-21.11Q57.63-19.18 57.63-15.05L57.63-15.05L57.63-15.05Q57.63-10.91 55.85-8.01L55.85-8.01L55.85-8.01Q54.06-5.10 50.59-2.86L50.59-2.86L50.59-2.86Q43.15 1.94 30.14 1.94L30.14 1.94L30.14 1.94Q17.14 1.94 10.05-4.85L10.05-4.85L10.05-4.85Q2.96-11.63 2.96-23.66L2.96-23.66L2.96-23.66Q2.96-40.70 11.83-53.65L11.83-53.65L11.83-53.65Q18.56-63.24 30.60-67.32L30.60-67.32L30.60-67.32Q36.82-69.36 42.94-69.36L42.94-69.36L42.94-69.36Q49.06-69.36 52.84-68.54L52.84-68.54L52.84-68.54Q56.61-67.73 59.47-66.10L59.47-66.10L59.47-66.10Q65.69-62.53 65.69-56.81L65.69-56.81L65.69-56.81Q65.69-51.61 60.79-47.74L60.79-47.74L60.79-47.74Q56.30-44.27 52.63-44.27L52.63-44.27L52.63-44.27Q48.96-44.27 47.43-44.78L47.43-44.78L47.43-44.78Q47.84-48.45 47.84-50.85L47.84-50.85L47.84-50.85Q47.84-53.24 47.74-54.98L47.74-54.98L47.74-54.98Q47.63-56.71 47.12-58.34L47.12-58.34L47.12-58.34Q46.10-62.12 42.99-62.12L42.99-62.12L42.99-62.12Q39.88-62.12 36.77-59.21L36.77-59.21L36.77-59.21Q33.66-56.30 31.01-51.41L31.01-51.41L31.01-51.41Q24.99-40.29 24.99-27.13L24.99-27.13L24.99-27.13Q24.99-20.81 28.56-17.19L28.56-17.19L28.56-17.19Q32.13-13.57 39.78-13.57L39.78-13.57L39.78-13.57Q45.49-13.57 50.90-17.34L50.90-17.34L50.90-17.34Q53.24-18.97 54.98-21.11ZM117.40-11.32L117.40-11.32L117.40-11.32Q117.40-6.83 121.99-5.51L121.99-5.51L121.99-5.51Q120.87-1.73 116.48 0.31L116.48 0.31L116.48 0.31Q112.81 2.04 108.78 2.04L108.78 2.04L108.78 2.04Q104.75 2.04 102.66 0.97L102.66 0.97L102.66 0.97Q100.57-0.10 99.45-1.84L99.45-1.84L99.45-1.84Q97.61-4.49 97.61-9.49L97.61-9.49L97.61-9.49Q97.61-12.44 99.25-20.60L99.25-20.60L100.67-28.36L100.67-28.36Q102.41-37.23 102.41-40.49L102.41-40.49L102.41-40.49Q102.41-46.21 99.25-46.21L99.25-46.21L99.25-46.21Q95.27-46.21 92.72-40.39L92.72-40.39L92.72-40.39Q91.70-38.15 90.98-34.78L90.98-34.78L84.05 0L63.55 2.04L77.93-71.40L98.43-73.44L97.61-69.36L97.61-69.36Q94.76-53.65 92.31-48.35L92.31-48.35L92.31-48.35Q98.02-54.06 108.53-54.06L108.53-54.06L108.53-54.06Q119.65-54.06 121.69-46.72L121.69-46.72L121.69-46.72Q122.40-44.37 122.40-42.33L122.40-42.33L122.40-42.33Q122.40-40.29 122.25-38.71L122.25-38.71L122.25-38.71Q122.09-37.13 121.58-34.27L121.58-34.27L120.26-26.93L117.91-15.40L117.91-15.40Q117.40-13.06 117.40-11.32ZM134.69-3.06L134.69-3.06L134.69-3.06Q132.29-5.71 131.22-9.89L131.22-9.89L131.22-9.89Q130.15-14.08 130.15-20.91L130.15-20.91L130.15-20.91Q130.15-27.74 132.50-33.97L132.50-33.97L132.50-33.97Q134.84-40.19 139.13-44.68L139.13-44.68L139.13-44.68Q147.90-54.06 162.38-54.06L162.38-54.06L162.38-54.06Q167.59-54.06 171.36-52.33L171.36-52.33L188.80-54.06L181.25-14.28L181.25-14.28Q180.95-13.06 180.95-10.81L180.95-10.81L180.95-10.81Q180.95-8.57 182.33-7.14L182.33-7.14L182.33-7.14Q183.70-5.71 185.74-5.51L185.74-5.51L185.74-5.51Q184.72-2.04 181.00 0L181.00 0L181.00 0Q177.28 2.04 173.09 2.04L173.09 2.04L173.09 2.04Q168.91 2.04 166.11 0.46L166.11 0.46L166.11 0.46Q163.30-1.12 162.49-3.77L162.49-3.77L162.49-3.77Q160.85-1.22 157.39 0.41L157.39 0.41L157.39 0.41Q153.92 2.04 149.28 2.04L149.28 2.04L149.28 2.04Q144.64 2.04 140.86 0.82L140.86 0.82L140.86 0.82Q137.09-0.41 134.69-3.06ZM156.21-44.47L156.21-44.47L156.21-44.47Q155.04-42.64 154.02-39.53L154.02-39.53L154.02-39.53Q153-36.41 151.32-28.10L151.32-28.10L151.32-28.10Q149.63-19.79 149.63-13.87L149.63-13.87L149.63-13.87Q149.63-7.96 150.55-6.22L150.55-6.22L150.55-6.22Q151.47-4.49 153.10-4.49L153.10-4.49L153.10-4.49Q156.37-4.49 158.76-7.60L158.76-7.60L158.76-7.60Q161.16-10.71 162.08-16.22L162.08-16.22L167.48-46.10L167.48-46.10Q165.34-47.94 162.84-47.94L162.84-47.94L162.84-47.94Q160.34-47.94 158.87-47.12L158.87-47.12L158.87-47.12Q157.39-46.31 156.21-44.47ZM195.94-10.20L195.94-10.20L195.94-10.20Q195.94-12.95 197.37-19.89L197.37-19.89L202.78-47.43L196.76-47.43L197.17-50.49L197.17-50.49Q209.41-54.16 221.24-63.14L221.24-63.14L226.13-63.14L223.69-52.02L231.64-52.02L230.72-47.43L222.87-47.43L217.67-19.89L217.67-19.89Q216.34-13.57 216.34-11.42L216.34-11.42L216.34-11.42Q216.34-6.53 220.63-5.51L220.63-5.51L220.63-5.51Q219.61-2.04 215.93 0L215.93 0L215.93 0Q212.26 2.04 207.06 2.04L207.06 2.04L207.06 2.04Q201.86 2.04 198.90-1.22L198.90-1.22L198.90-1.22Q195.94-4.49 195.94-10.20ZM261.63-35.80L261.63-35.80L261.63-35.80Q263.06-39.58 263.06-42.84L263.06-42.84L263.06-42.84Q263.06-48.86 258.16-48.86L258.16-48.86L258.16-48.86Q255.61-48.86 253.52-46.56L253.52-46.56L253.52-46.56Q251.43-44.27 251.43-41.41L251.43-41.41L251.43-41.41Q251.43-39.37 253.06-37.74L253.06-37.74L253.06-37.74Q255.41-35.50 261.43-31.82L261.43-31.82L261.43-31.82Q267.44-28.15 269.74-25.14L269.74-25.14L269.74-25.14Q272.03-22.13 272.03-18.00L272.03-18.00L272.03-18.00Q272.03-13.87 270.05-10.10L270.05-10.10L270.05-10.10Q268.06-6.32 264.49-3.67L264.49-3.67L264.49-3.67Q256.84 2.04 244.60 2.04L244.60 2.04L244.60 2.04Q237.97 2.04 232.87-1.43L232.87-1.43L232.87-1.43Q227.77-4.79 227.77-8.77L227.77-8.77L227.77-8.77Q227.77-12.75 230.67-15.10L230.67-15.10L230.67-15.10Q233.58-17.44 237.86-17.44L237.86-17.44L237.86-17.44Q242.15-17.44 244.80-15.81L244.80-15.81L244.80-15.81Q243.47-12.44 243.47-10.20L243.47-10.20L243.47-10.20Q243.47-3.47 249.19-3.47L249.19-3.47L249.19-3.47Q251.63-3.47 253.27-5.00L253.27-5.00L253.27-5.00Q254.90-6.53 254.90-9.18L254.90-9.18L254.90-9.18Q254.90-14.38 246.13-19.89L246.13-19.89L246.13-19.89Q238.99-24.58 237.35-26.42L237.35-26.42L237.35-26.42Q234.60-29.68 234.60-33.76L234.60-33.76L234.60-33.76Q234.60-37.84 236.54-41.72L236.54-41.72L236.54-41.72Q238.48-45.59 242.05-48.35L242.05-48.35L242.05-48.35Q249.49-54.06 262.45-54.06L262.45-54.06L262.45-54.06Q269.08-54.06 273.00-51.41L273.00-51.41L273.00-51.41Q276.93-48.76 276.93-44.27L276.93-44.27L276.93-44.27Q276.93-39.78 274.23-37.23L274.23-37.23L274.23-37.23Q271.52-34.68 266.63-34.68L266.63-34.68L266.63-34.68Q263.26-34.68 261.63-35.80ZM282.34-10.20L282.34-10.20L282.34-10.20Q282.34-12.95 283.76-19.89L283.76-19.89L289.17-47.43L283.15-47.43L283.56-50.49L283.56-50.49Q295.80-54.16 307.63-63.14L307.63-63.14L312.53-63.14L310.08-52.02L318.04-52.02L317.12-47.43L309.26-47.43L304.06-19.89L304.06-19.89Q302.74-13.57 302.74-11.42L302.74-11.42L302.74-11.42Q302.74-6.53 307.02-5.51L307.02-5.51L307.02-5.51Q306-2.04 302.33 0L302.33 0L302.33 0Q298.66 2.04 293.45 2.04L293.45 2.04L293.45 2.04Q288.25 2.04 285.29-1.22L285.29-1.22L285.29-1.22Q282.34-4.49 282.34-10.20ZM358.43-17.24L358.43-17.24L358.43-17.24Q360.98-15.50 360.98-11.68L360.98-11.68L360.98-11.68Q360.98-7.85 359.04-5.41L359.04-5.41L359.04-5.41Q357.10-2.96 353.94-1.33L353.94-1.33L353.94-1.33Q347.41 2.04 340.37 2.04L340.37 2.04L340.37 2.04Q333.34 2.04 329.21 0.51L329.21 0.51L329.21 0.51Q325.07-1.02 322.32-3.88L322.32-3.88L322.32-3.88Q316.91-9.28 316.91-19.18L316.91-19.18L316.91-19.18Q316.91-34.58 325.28-43.96L325.28-43.96L325.28-43.96Q334.25-54.06 349.86-54.06L349.86-54.06L349.86-54.06Q359.55-54.06 364.34-49.98L364.34-49.98L364.34-49.98Q367.91-46.92 367.91-41.92L367.91-41.92L367.91-41.92Q367.91-23.97 336.91-23.97L336.91-23.97L336.91-23.97Q336.50-21.32 336.50-19.07L336.50-19.07L336.50-19.07Q336.50-14.38 338.59-12.60L338.59-12.60L338.59-12.60Q340.68-10.81 344.56-10.81L344.56-10.81L344.56-10.81Q348.43-10.81 352.56-12.60L352.56-12.60L352.56-12.60Q356.69-14.38 358.43-17.24ZM337.62-28.36L337.62-28.36L337.62-28.36Q344.86-28.36 349.04-32.84L349.04-32.84L349.04-32.84Q353.23-37.13 353.23-43.96L353.23-43.96L353.23-43.96Q353.23-46.31 352.36-47.58L352.36-47.58L352.36-47.58Q351.49-48.86 349.76-48.86L349.76-48.86L349.76-48.86Q348.02-48.86 346.55-48.20L346.55-48.20L346.55-48.20Q345.07-47.53 343.54-45.29L343.54-45.29L343.54-45.29Q339.76-40.19 337.62-28.36ZM403.31-28.66L403.31-28.66L403.31-28.66Q406.98-35.19 406.98-41.82L406.98-41.82L406.98-41.82Q406.98-46.21 403.82-46.21L403.82-46.21L403.82-46.21Q401.37-46.21 398.82-42.02L398.82-42.02L398.82-42.02Q396.17-37.84 395.35-32.44L395.35-32.44L390.05 0L368.93 2.04L379.34-52.02L396.17-54.06L394.33-43.76L394.33-43.76Q399.33-54.06 410.55-54.06L410.55-54.06L410.55-54.06Q416.47-54.06 419.68-51.00L419.68-51.00L419.68-51.00Q422.89-47.94 422.89-41.67L422.89-41.67L422.89-41.67Q422.89-35.39 418.76-31.42L418.76-31.42L418.76-31.42Q414.63-27.44 407.59-27.44L407.59-27.44L407.59-27.44Q404.53-27.44 403.31-28.66Z" 
      fill="#ffffff"/>
    </g>
  </g>
  <style>text {
  font-size: 64px;
  font-family: Arial Black;
  dominant-baseline: central;
  text-anchor: middle;
}</style>
</svg>